<svg xmlns="http://www.w3.org/2000/svg" viewBox="0 0 242.33 100.91"><defs><style>.cls-1{fill:#231f20;}.cls-2{fill:none;stroke:#231f20;stroke-linecap:round;stroke-linejoin:round;}</style></defs><title>Asset 8</title><g id="Layer_2" data-name="Layer 2"><g id="Layer_1-2" data-name="Layer 1"><path class="cls-1" d="M63,10.53c.19-.85,1.6-1.17,2.31-1.17,1.53,0,3.11.85,4.72,2.54a8.17,8.17,0,0,1,2.43,5.82q0,12-17.89,12A66.36,66.36,0,0,1,41.28,28.5V65.91q0,8.2-3.09,13T28.9,83.8q-6.21,0-9.34-2.85a9.72,9.72,0,0,1-3.12-7.54c0-1.17.06-4.28,1.93-5.48.22-.14,1.14-.73,1.86-.38a1.9,1.9,0,0,1,.77,1,2.36,2.36,0,0,1,.16,1.15c-.13,1.77-.71,2.86-.77,4.46a8.51,8.51,0,0,0,.34,2.64,5.38,5.38,0,0,0,1,2.35,5.2,5.2,0,0,0,3,1.54,6.83,6.83,0,0,0,1.53.18,11.85,11.85,0,0,0,5.24-1.21c3.31-1.8,3.82-7.93,3.93-9.48.57-7.84.91-23.08.63-42.81l-7-2.45L23.87,23C18,27.5,12.25,29.47,8.7,29.2a10.57,10.57,0,0,1-5.88-2,7.33,7.33,0,0,1-1.38-1.42,7.79,7.79,0,0,1-1.42-4,7.66,7.66,0,0,1,1.05-4.52c.44-.65,2-2.66,7.65-2.84,5.91-.19,8.82,1.89,19.25,5.77,4.94,1.84,8.34,2.84,12.31,4,6.53,1.94,10.65,2.85,15.55,3,3.44.11,7.1-.16,10.13-2.17a8.39,8.39,0,0,0,3.21-3.53,8.41,8.41,0,0,0,.69-3.59,6.29,6.29,0,0,0-.37-2.42,5.08,5.08,0,0,0-1.68-2.35,4.89,4.89,0,0,0-2.8-1l-1.39-.25C63.45,11.77,62.86,11.15,63,10.53ZM9.31,26a12.85,12.85,0,0,0,6.41-1.39,14.48,14.48,0,0,0,4.55-3.51,48.62,48.62,0,0,0-6.61-2.47A17,17,0,0,0,9,17.8c-2.42,0-3.57.52-4.22,1.05a3.32,3.32,0,0,0-1.29,2.69,4.6,4.6,0,0,0,.76,2.52C5.37,25.74,7.77,25.87,9.31,26Z"/><path class="cls-1" d="M98,65.45q1.41,0,1.41,4.14A17.2,17.2,0,0,1,96.31,79.9a9.46,9.46,0,0,1-8,4.29,10.7,10.7,0,0,1-8.16-3.47,12.61,12.61,0,0,1-3.24-9V60.68q0-9.3-4.69-9.29a7.53,7.53,0,0,0-2.41.4,9,9,0,0,0-4.37,3.84c-3.23,4.86-3.05,13-3,14.1L62.29,82a2.09,2.09,0,0,1-.39,1.47,2.45,2.45,0,0,1-1.87.77,3,3,0,0,1-1.11-.1c-1.45-.59-1.14-4.72-1.11-5.07.46-6.07.07-12.17.33-18.25,0-.14,0-.24,0-.35,0-1,0-1.68,0-1.81,0-.68,0-2.88-.12-11,0,0-.09-10.16.06-16.07A34.84,34.84,0,0,1,58.75,25a6.13,6.13,0,0,1,1.4-2.09,6.87,6.87,0,0,1,5-1.57,5.42,5.42,0,0,1,2.57.57A5.18,5.18,0,0,1,69.82,24c1.65,2.85,1.12,6.74,1,7.54-1.08,7.21-6.65,14.32-8.06,16.07v6.87a11.29,11.29,0,0,1,3.67-4,10.89,10.89,0,0,1,6.72-1.81c1,.08,4.17.3,6.09,2.67a7.42,7.42,0,0,1,1.34,2.93,29,29,0,0,1,1,9.21l-.12,8.86a10.89,10.89,0,0,0,2.68,7.12A6.68,6.68,0,0,0,87,81.36a6.25,6.25,0,0,0,3,.17c2.45-.52,3.81-2.74,4.64-4.09,2.68-4.37,2.42-9.25,2.15-11.53C96.87,65.6,97.26,65.45,98,65.45ZM62.76,43.89Q68.07,37,68.07,30.53t-2.81-6.48a1.44,1.44,0,0,0-.77.26c-1.5,1-1.62,3.33-1.67,4.51C62.71,31.81,62.63,37.11,62.76,43.89Z"/><path class="cls-1" d="M126.76,68.28a1.19,1.19,0,0,1,1.07.31,2.51,2.51,0,0,1,.76,1.85,9.39,9.39,0,0,1-.46,3.83,16.25,16.25,0,0,1-3.81,6.31c-4.4,4.35-10.26,4.54-11.62,4.58-1.79.06-7.4.24-12-3.82C95.81,77,95.55,70.85,95.44,68.41c0-.57-.23-7.49,3.83-12.81a13.38,13.38,0,0,1,3.39-3.2,12.24,12.24,0,0,1,5.52-1.88,10.1,10.1,0,0,1,5.21.75,8,8,0,0,1,2.08,1.32,8.14,8.14,0,0,1,1.88,2.63,11,11,0,0,1,1,3.9,9.73,9.73,0,0,1-.5,4.26c-.53,1.4-1.53,2.77-3.95,4.46a31.31,31.31,0,0,1-12,4.79q.7,5,3.63,7.54a11.39,11.39,0,0,0,7.73,2.54,11.76,11.76,0,0,0,3-.37,12.94,12.94,0,0,0,5.7-3.26,14.83,14.83,0,0,0,4.22-9.67A1.14,1.14,0,0,1,126.76,68.28ZM101.64,69v.7a19,19,0,0,0,8.4-3,8.14,8.14,0,0,0,3.56-7.19,7.16,7.16,0,0,0-1.33-4.65,4.6,4.6,0,0,0-3.75-1.6,5.43,5.43,0,0,0-5.27,3.59Q101.65,60.45,101.64,69Z"/><path class="cls-1" d="M211.11,69.92l.18,2.88a2.87,2.87,0,0,1-.66,2.21,2.8,2.8,0,0,1-2.08.93,1.42,1.42,0,0,1-.83-.24,2,2,0,0,1-.59-1.66,46.2,46.2,0,0,1,.89-6.81,17.71,17.71,0,0,1-8.59,6.37,33.06,33.06,0,0,1-11.5,2q-10.35,0-15.93-5.77t-5.59-15.74a27.66,27.66,0,0,1,8.3-20.36c9-9,20.87-8.89,22.72-8.85a22.29,22.29,0,0,1,10.45,2.95,8.2,8.2,0,0,1,3.54,3.87,7.2,7.2,0,0,1,.47,2.81A5.37,5.37,0,0,1,211,38a2.85,2.85,0,0,1-2.34,1.19,2,2,0,0,1-1.33-.46,1.64,1.64,0,0,1-.61-1.19c0-.71.8-.76,1.4-1.79a3.77,3.77,0,0,0,.47-2.07,4.25,4.25,0,0,0-.63-2,6.15,6.15,0,0,0-3.07-2.39,20.12,20.12,0,0,0-8.18-1.3,25.11,25.11,0,0,0-10.13,2.81,28.16,28.16,0,0,0-5.74,4.11,24.23,24.23,0,0,0-4,4.59,25.2,25.2,0,0,0-2.6,5.14,26.39,26.39,0,0,0-1.4,4.71,23.88,23.88,0,0,0,0,9,21.55,21.55,0,0,0,3.76,8.56,13.65,13.65,0,0,0,3.89,3.83c2.93,1.81,5.87,1.85,8.43,1.88a25.24,25.24,0,0,0,6.82-.9,22.5,22.5,0,0,0,7-2.79,19.57,19.57,0,0,0,6.4-6.85c.25-1.15.59-3.18,1-6.11h-17.2c-.49,0-.74-.17-.74-.52a1.84,1.84,0,0,1,.63-1.15,4.48,4.48,0,0,1,1.62-1c5.11-1.48,21.56-.66,22.38-.18a1.12,1.12,0,0,1,.4.38.74.74,0,0,1,.13.38c0,.33-.25.71-.74,1.16a4.15,4.15,0,0,1-2.09.89h-1.11l-.54,1.31a34.59,34.59,0,0,0-1.74,12.62Z"/><circle class="cls-2" cx="191.87" cy="50.45" r="49.95"/></g></g></svg>